<?xml version="1.0" encoding="utf-8"?>
<!-- Generator: Adobe Illustrator 21.0.2, SVG Export Plug-In . SVG Version: 6.00 Build 0)  -->
<svg version="1.1" id="Capa_1" xmlns="http://www.w3.org/2000/svg" xmlns:xlink="http://www.w3.org/1999/xlink" x="0px" y="0px"
	 viewBox="0 0 31 31" style="enable-background:new 0 0 31 31;" xml:space="preserve">
<style type="text/css">
	.st0{fill:#BE2736;}
</style>
<g>
	<g>
		<path class="st0" d="M25.1,21.5c-0.1,0-0.2,0-0.3-0.1L19,16c-0.2-0.2-0.2-0.5,0-0.7c0.2-0.2,0.5-0.2,0.7,0l5.8,5.4
			c0.2,0.2,0.2,0.5,0,0.7C25.4,21.5,25.2,21.5,25.1,21.5z"/>
		<path class="st0" d="M5.9,21.5c-0.1,0-0.3-0.1-0.4-0.2c-0.2-0.2-0.2-0.5,0-0.7l5.8-5.4c0.2-0.2,0.5-0.2,0.7,0
			c0.2,0.2,0.2,0.5,0,0.7l-5.8,5.4C6.1,21.5,6,21.5,5.9,21.5z"/>
	</g>
	<path class="st0" d="M28.5,26.5h-26C1.1,26.5,0,25.4,0,24V7c0-1.4,1.1-2.5,2.5-2.5h26C29.9,4.5,31,5.6,31,7v17
		C31,25.4,29.9,26.5,28.5,26.5z M2.5,5.5C1.7,5.5,1,6.2,1,7v17c0,0.8,0.7,1.5,1.5,1.5h26c0.8,0,1.5-0.7,1.5-1.5V7
		c0-0.8-0.7-1.5-1.5-1.5H2.5z"/>
	<path class="st0" d="M15.5,18c-0.7,0-1.3-0.2-1.8-0.7L0.8,6.2C0.6,6,0.6,5.7,0.8,5.4c0.2-0.2,0.5-0.2,0.7,0l12.8,11.2
		c0.6,0.6,1.7,0.6,2.4,0L29.5,5.4c0.2-0.2,0.5-0.2,0.7,0c0.2,0.2,0.2,0.5,0,0.7L17.3,17.4C16.8,17.8,16.2,18,15.5,18z"/>
</g>
</svg>
